<svg width="269" height="146" viewBox="0 0 269 146" fill="none" xmlns="http://www.w3.org/2000/svg">
<g clip-path="url(#clip0_2_6)">
<path fill-rule="evenodd" clip-rule="evenodd" d="M17.8153 80.3569C16.7817 83.6536 16.2583 87.1956 16.3533 90.9595C16.6004 100.943 21.6617 110.201 29.7258 117.028C47.6275 132.18 74.7146 131.987 93.8355 119.175C102.188 113.581 109.49 105.821 116.787 97.3981C117.932 98.7573 119.078 100.12 120.243 101.451C122.629 104.364 124.985 107.208 127.421 110.068C119.899 118.631 112.176 126.548 102.933 132.74C77.7555 149.609 42.6393 149.383 19.1544 129.503C7.62544 119.746 0.384364 106.208 0.0159511 91.3434C-0.217962 82.0535 2.05538 73.6351 6.13131 66.3147C9.03915 71.7546 13.0303 76.5317 17.8153 80.3569ZM6.13131 66.3147C2.75273 59.9929 0.837571 52.7761 0.837571 45.1169C0.837571 20.2166 21.0813 0 46.015 0C69.5495 0 88.9044 18.0091 91.0037 40.9691C83.3022 37.7103 74.583 35.7174 64.3567 35.4649C41.056 34.8925 17.0858 46.6397 6.13131 66.3147ZM91.0037 40.9691C109.142 48.6472 121.632 63.3523 134.843 78.9101C138.215 82.8813 141.507 86.9167 144.871 90.8792C161.229 110.141 176.313 127.902 203.25 128.568C215.51 128.867 228.04 125.031 237.496 117.028C248.932 107.348 253.029 94.189 249.79 82.0155C254.778 78.51 259.022 74.0089 262.24 68.801C272.086 88.9812 267.362 113.173 248.068 129.503C235.527 140.118 219.157 145.283 202.865 144.883C168.555 144.035 151.2 123.599 132.377 101.436C129.012 97.4725 125.722 93.4385 122.351 89.4673C111.91 77.1741 101.99 65.4927 89.1748 58.4759C90.4862 54.2536 91.1923 49.767 91.1923 45.1169C91.1923 43.7182 91.128 42.3356 91.0037 40.9691ZM249.79 82.0155C242.53 87.1197 233.697 90.1156 224.172 90.1156C203.538 90.1156 186.146 76.0572 180.968 56.959C199.175 48.6107 221.802 50.0357 237.496 63.3202C243.883 68.7251 247.981 75.2163 249.79 82.0155ZM180.968 56.959C178.138 58.2569 175.414 59.7899 172.84 61.5536C164.719 67.1133 157.586 74.7009 150.462 82.9236C146.954 78.6429 143.387 74.4907 139.798 70.2771C147.141 61.9171 154.673 54.1733 163.615 48.053C168.629 44.6176 174.052 41.864 179.708 39.8157C179.503 41.5545 179.399 43.3226 179.399 45.1169C179.399 49.2151 179.945 53.1849 180.968 56.959ZM179.708 39.8157C182.32 17.4747 201.245 0.11826 224.172 0.11826C248.882 0.11826 268.943 20.2809 268.943 45.1169C268.943 53.8039 266.488 61.9201 262.24 68.801C259.047 62.2588 254.323 56.1385 248.068 50.843C229.027 34.7276 202.476 31.5637 179.708 39.8157ZM89.1748 58.4759C83.4674 76.8632 66.2923 90.2338 46.015 90.2338C35.3514 90.2338 25.5476 86.5357 17.8153 80.3569C23.5476 62.0777 44.9828 51.3161 63.9722 51.7804C73.7176 52.0213 81.9118 54.4989 89.1748 58.4759Z" fill="#D1D5DB"/>
</g>
<defs>
<clipPath id="clip0_2_6">
<rect width="269" height="146" fill="white"/>
</clipPath>
</defs>
</svg>
