<svg width="405" height="93" viewBox="0 0 405 93" fill="none" xmlns="http://www.w3.org/2000/svg">
<path d="M42.728 70V2.8H52.328V70H42.728ZM0.00800061 70V2.8H9.608V70H0.00800061ZM7.976 39.664V31.792H44.84V39.664H7.976ZM64.655 70V21.616H74.255V70H64.655ZM69.551 12.496C67.695 12.496 66.159 11.92 64.943 10.768C63.791 9.616 63.215 8.144 63.215 6.352C63.215 4.62399 63.791 3.216 64.943 2.128C66.159 0.975998 67.695 0.399998 69.551 0.399998C71.343 0.399998 72.847 0.975998 74.063 2.128C75.279 3.216 75.887 4.62399 75.887 6.352C75.887 8.144 75.279 9.616 74.063 10.768C72.847 11.92 71.343 12.496 69.551 12.496ZM86.063 70V21.616H94.703L95.279 29.872C96.815 26.992 98.991 24.72 101.807 23.056C104.623 21.328 107.855 20.464 111.503 20.464C115.343 20.464 118.639 21.232 121.391 22.768C124.143 24.304 126.287 26.64 127.823 29.776C129.359 32.848 130.127 36.72 130.127 41.392V70H120.527V42.352C120.527 37.872 119.535 34.48 117.551 32.176C115.567 29.872 112.687 28.72 108.911 28.72C106.415 28.72 104.175 29.328 102.191 30.544C100.207 31.696 98.607 33.424 97.391 35.728C96.239 38.032 95.663 40.848 95.663 44.176V70H86.063ZM161.991 71.152C157.383 71.152 153.319 70.064 149.799 67.888C146.279 65.648 143.527 62.64 141.543 58.864C139.623 55.024 138.663 50.672 138.663 45.808C138.663 40.88 139.623 36.528 141.543 32.752C143.527 28.976 146.279 26 149.799 23.824C153.383 21.584 157.479 20.464 162.087 20.464C165.863 20.464 169.191 21.232 172.071 22.768C174.951 24.24 177.191 26.352 178.791 29.104V0.879997H188.391V70H179.751L178.791 62.512C177.831 63.984 176.583 65.392 175.047 66.736C173.511 68.016 171.655 69.072 169.479 69.904C167.303 70.736 164.807 71.152 161.991 71.152ZM163.527 62.8C166.535 62.8 169.191 62.096 171.495 60.688C173.799 59.28 175.559 57.296 176.775 54.736C178.055 52.176 178.695 49.2 178.695 45.808C178.695 42.416 178.055 39.472 176.775 36.976C175.559 34.416 173.799 32.432 171.495 31.024C169.191 29.552 166.535 28.816 163.527 28.816C160.647 28.816 158.055 29.552 155.751 31.024C153.447 32.432 151.655 34.416 150.375 36.976C149.095 39.472 148.455 42.416 148.455 45.808C148.455 49.2 149.095 52.176 150.375 54.736C151.655 57.296 153.447 59.28 155.751 60.688C158.055 62.096 160.647 62.8 163.527 62.8ZM218.318 71.152C214.222 71.152 210.638 70.48 207.566 69.136C204.494 67.792 202.062 65.904 200.27 63.472C198.478 61.04 197.39 58.192 197.006 54.928H206.798C207.118 56.464 207.726 57.872 208.622 59.152C209.582 60.432 210.862 61.456 212.462 62.224C214.126 62.992 216.078 63.376 218.318 63.376C220.43 63.376 222.158 63.088 223.502 62.512C224.91 61.872 225.934 61.04 226.574 60.016C227.214 58.928 227.534 57.776 227.534 56.56C227.534 54.768 227.086 53.424 226.19 52.528C225.358 51.568 224.078 50.832 222.35 50.32C220.686 49.744 218.67 49.232 216.302 48.784C214.062 48.4 211.886 47.888 209.774 47.248C207.726 46.544 205.87 45.68 204.206 44.656C202.606 43.632 201.326 42.352 200.366 40.816C199.406 39.216 198.926 37.264 198.926 34.96C198.926 32.208 199.662 29.744 201.134 27.568C202.606 25.328 204.686 23.6 207.374 22.384C210.126 21.104 213.358 20.464 217.07 20.464C222.446 20.464 226.766 21.744 230.03 24.304C233.294 26.864 235.214 30.48 235.79 35.152H226.478C226.222 32.976 225.262 31.312 223.598 30.16C221.934 28.944 219.726 28.336 216.974 28.336C214.222 28.336 212.11 28.88 210.638 29.968C209.166 31.056 208.43 32.496 208.43 34.288C208.43 35.44 208.846 36.464 209.678 37.36C210.51 38.256 211.726 39.024 213.326 39.664C214.99 40.24 217.006 40.784 219.374 41.296C222.766 41.936 225.806 42.736 228.494 43.696C231.182 44.656 233.326 46.064 234.926 47.92C236.526 49.776 237.326 52.432 237.326 55.888C237.39 58.896 236.622 61.552 235.022 63.856C233.486 66.16 231.278 67.952 228.398 69.232C225.582 70.512 222.222 71.152 218.318 71.152ZM247.381 70V21.616H256.981V70H247.381ZM252.277 12.496C250.421 12.496 248.885 11.92 247.669 10.768C246.517 9.616 245.941 8.144 245.941 6.352C245.941 4.62399 246.517 3.216 247.669 2.128C248.885 0.975998 250.421 0.399998 252.277 0.399998C254.069 0.399998 255.573 0.975998 256.789 2.128C258.005 3.216 258.613 4.62399 258.613 6.352C258.613 8.144 258.005 9.616 256.789 10.768C255.573 11.92 254.069 12.496 252.277 12.496ZM288.469 92.272C284.053 92.272 280.149 91.696 276.757 90.544C273.365 89.456 270.741 87.76 268.885 85.456C267.029 83.152 266.101 80.336 266.101 77.008C266.101 75.28 266.485 73.52 267.253 71.728C268.021 70 269.269 68.336 270.997 66.736C272.725 65.136 275.061 63.696 278.005 62.416L283.381 66.736C280.117 67.952 277.909 69.392 276.757 71.056C275.669 72.784 275.125 74.448 275.125 76.048C275.125 77.968 275.701 79.568 276.853 80.848C278.005 82.128 279.573 83.088 281.557 83.728C283.605 84.368 285.909 84.688 288.469 84.688C290.965 84.688 293.141 84.336 294.997 83.632C296.853 82.928 298.293 81.936 299.317 80.656C300.341 79.376 300.853 77.872 300.853 76.144C300.853 74.096 300.085 72.368 298.549 70.96C297.013 69.616 294.069 68.816 289.717 68.56C286.069 68.304 282.965 67.952 280.405 67.504C277.909 67.056 275.765 66.512 273.973 65.872C272.245 65.232 270.773 64.528 269.557 63.76C268.405 62.992 267.413 62.192 266.581 61.36V59.152L276.181 49.264L283.957 51.952L273.493 61.648L275.509 57.328C276.213 57.776 276.885 58.224 277.525 58.672C278.165 59.056 279.029 59.408 280.117 59.728C281.205 60.048 282.677 60.336 284.533 60.592C286.389 60.848 288.821 61.104 291.829 61.36C296.181 61.68 299.669 62.448 302.293 63.664C304.981 64.88 306.933 66.512 308.149 68.56C309.365 70.608 309.973 73.04 309.973 75.856C309.973 78.608 309.205 81.232 307.669 83.728C306.197 86.224 303.861 88.272 300.661 89.872C297.525 91.472 293.461 92.272 288.469 92.272ZM288.469 55.12C284.373 55.12 280.885 54.352 278.005 52.816C275.189 51.28 273.013 49.2 271.477 46.576C270.005 43.952 269.269 41.04 269.269 37.84C269.269 34.576 270.005 31.664 271.477 29.104C273.013 26.48 275.221 24.4 278.101 22.864C280.981 21.264 284.437 20.464 288.469 20.464C292.501 20.464 295.925 21.264 298.741 22.864C301.621 24.4 303.797 26.48 305.269 29.104C306.805 31.664 307.573 34.576 307.573 37.84C307.573 41.04 306.805 43.952 305.269 46.576C303.797 49.2 301.621 51.28 298.741 52.816C295.925 54.352 292.501 55.12 288.469 55.12ZM288.469 47.44C291.605 47.44 294.101 46.64 295.957 45.04C297.813 43.376 298.741 40.976 298.741 37.84C298.741 34.704 297.813 32.336 295.957 30.736C294.101 29.072 291.605 28.24 288.469 28.24C285.333 28.24 282.805 29.072 280.885 30.736C278.965 32.336 278.005 34.704 278.005 37.84C278.005 40.976 278.965 43.376 280.885 45.04C282.805 46.64 285.333 47.44 288.469 47.44ZM296.341 29.2L294.037 21.616H313.909V28.24L296.341 29.2ZM321.619 70V0.879997H331.219V29.488C332.819 26.672 335.027 24.464 337.843 22.864C340.723 21.264 343.891 20.464 347.347 20.464C351.187 20.464 354.483 21.264 357.235 22.864C359.987 24.4 362.099 26.736 363.571 29.872C365.043 32.944 365.779 36.816 365.779 41.488V70H356.275V42.448C356.275 37.968 355.315 34.576 353.395 32.272C351.475 29.904 348.627 28.72 344.851 28.72C342.291 28.72 339.987 29.328 337.939 30.544C335.891 31.76 334.259 33.552 333.043 35.92C331.827 38.224 331.219 41.04 331.219 44.368V70H321.619ZM396.105 70C393.033 70 390.377 69.52 388.137 68.56C385.897 67.6 384.169 66 382.953 63.76C381.737 61.52 381.129 58.48 381.129 54.64V29.776H372.777V21.616H381.129L382.281 9.51999H390.729V21.616H404.457V29.776H390.729V54.736C390.729 57.488 391.305 59.376 392.457 60.4C393.609 61.36 395.593 61.84 398.409 61.84H403.977V70H396.105Z" fill="#111827"/>
</svg>
